# xmcd CD database file
#
# Track frame offsets:
#	187
#	24125
#	41785
#	68400
#	85865
#	103815
#	128227
#	147012
#	169277
#	184457
#	199420
#
# Disc length: 2883 seconds
#
# Revision: 0
# Processed by: cddbd v1.5PL3 Copyright (c) Steve Scherf et al.
# Submitted via: CDex 1.51
#
DISCID=990b410b
DTITLE=CINDERELLA - Long Cold Winter
DYEAR=1988
DGENRE=Hard Rock
TTITLE0=Bad Seamstress Blues
TTITLE1=Fallin' Apart At The Seams
TTITLE2=Gyssy Road
TTITLE3=Don't Know What You Got (Till It's Gone)
TTITLE4=The Last Mile
TTITLE5=Second Wind
TTITLE6=Long Cold Winter
TTITLE7=If You Don't Like It
TTITLE8=Coming Home
TTITLE9=Fire And Ice
TTITLE10=Take Me Back
EXTD=YEAR: 1988
EXTT0=
EXTT1=
EXTT2=
EXTT3=
EXTT4=
EXTT5=
EXTT6=
EXTT7=
EXTT8=
EXTT9=
EXTT10=
PLAYORDER=
